# xmcd CD database file
#
# Track frame offsets:
#	150
#	16294
#	29072
#	37899
#	48293
#	71046
#	87629
#	107057
#	126338
#	147609
#	164308
#	177169
#	188727
#	206178
#
# Disc length: 3010 seconds
#
# Revision: 0
# Processed by: cddbd v1.5PL3 Copyright (c) Steve Scherf et al.
# Submitted via: CDex 1.50
#
DISCID=cf0bc00e
DTITLE=Nirvana - Nirvana
DYEAR=1900
DGENRE=Grunge
TTITLE0=You Know You're Right
TTITLE1=About A Girl
TTITLE2=Been A Son
TTITLE3=Sliver
TTITLE4=Smells Like Teen Spirit
TTITLE5=Come As You Are
TTITLE6=Lithium
TTITLE7=In Bloom
TTITLE8=Heart-Shaped Box
TTITLE9=Pennyroyal Tea
TTITLE10=Rape Me
TTITLE11=Dumb
TTITLE12=All Apologies
TTITLE13=The Man Who Sold The World
EXTD=
EXTT0=
EXTT1=
EXTT2=
EXTT3=
EXTT4=
EXTT5=
EXTT6=
EXTT7=
EXTT8=
EXTT9=
EXTT10=
EXTT11=
EXTT12=
EXTT13=
PLAYORDER=
